<mxfile host="app.diagrams.net" modified="2023-05-26T18:08:47.370Z" agent="Mozilla/5.0 (Windows NT 10.0; Win64; x64; rv:109.0) Gecko/20100101 Firefox/113.0" etag="88IQSMnwznq2LNkBVxjd" version="21.3.4" type="github">
  <diagram name="Page-1" id="Gw6h3Obzz_ftjXIXXvwf">
    <mxGraphModel dx="1050" dy="511" grid="1" gridSize="10" guides="1" tooltips="1" connect="1" arrows="1" fold="1" page="1" pageScale="1" pageWidth="1169" pageHeight="827" math="0" shadow="0">
      <root>
        <mxCell id="0" />
        <mxCell id="1" parent="0" />
        <mxCell id="wsKt21fqOUYOqHdjAf_r-4" value="Match" style="swimlane;childLayout=stackLayout;horizontal=1;startSize=50;horizontalStack=0;rounded=1;fontSize=14;fontStyle=0;strokeWidth=2;resizeParent=0;resizeLast=1;shadow=0;dashed=0;align=center;arcSize=4;whiteSpace=wrap;html=1;" vertex="1" parent="1">
          <mxGeometry x="380" y="354" width="160" height="120" as="geometry" />
        </mxCell>
        <mxCell id="wsKt21fqOUYOqHdjAf_r-5" value="&lt;div&gt;&lt;b&gt;&lt;u&gt;id_match&lt;/u&gt;&lt;/b&gt;&lt;/div&gt;&lt;div&gt;match_day&lt;br&gt;&lt;/div&gt;&lt;div&gt;start_game&lt;/div&gt;&lt;div&gt;end_game&lt;/div&gt;&lt;div&gt;&lt;br&gt;&lt;/div&gt;&lt;div&gt;&lt;br&gt;&lt;/div&gt;" style="align=left;strokeColor=none;fillColor=none;spacingLeft=4;fontSize=12;verticalAlign=top;resizable=0;rotatable=0;part=1;html=1;" vertex="1" parent="wsKt21fqOUYOqHdjAf_r-4">
          <mxGeometry y="50" width="160" height="70" as="geometry" />
        </mxCell>
        <mxCell id="wsKt21fqOUYOqHdjAf_r-7" value="NFL_Teams" style="swimlane;childLayout=stackLayout;horizontal=1;startSize=50;horizontalStack=0;rounded=1;fontSize=14;fontStyle=0;strokeWidth=2;resizeParent=0;resizeLast=1;shadow=0;dashed=0;align=center;arcSize=4;whiteSpace=wrap;html=1;" vertex="1" parent="1">
          <mxGeometry x="130" y="490" width="160" height="90" as="geometry" />
        </mxCell>
        <mxCell id="wsKt21fqOUYOqHdjAf_r-8" value="&lt;div&gt;id_team&lt;/div&gt;&lt;div&gt;Team_name&lt;/div&gt;&lt;div&gt;&lt;br&gt;&lt;/div&gt;" style="align=left;strokeColor=none;fillColor=none;spacingLeft=4;fontSize=12;verticalAlign=top;resizable=0;rotatable=0;part=1;html=1;" vertex="1" parent="wsKt21fqOUYOqHdjAf_r-7">
          <mxGeometry y="50" width="160" height="40" as="geometry" />
        </mxCell>
      </root>
    </mxGraphModel>
  </diagram>
</mxfile>
